<?xml version="1.0" encoding="UTF-8"?>
<svg version="1.1" xmlns="http://www.w3.org/2000/svg" width="500" height="500">
<path d="M0 0 C165 0 330 0 500 0 C500 165 500 330 500 500 C335 500 170 500 0 500 C0 335 0 170 0 0 Z " fill="#000000" transform="translate(0,0)"/>
<path d="M0 0 C10.2572916 7.64268786 20.36659863 15.45654134 30.33984375 23.46508789 C34.56233182 26.85467501 38.80241834 30.22028697 43.0625 33.5625 C43.63750244 34.01375244 44.21250488 34.46500488 44.80493164 34.92993164 C47.6761367 37.18164366 50.55007211 39.42982535 53.42578125 41.67578125 C60.3848618 47.11824039 67.26652826 52.64538923 74.10888672 58.23388672 C79.21236466 62.38994598 84.40658185 66.40389885 89.640625 70.39453125 C94.27144322 73.95680628 98.78042251 77.67011107 103.3046875 81.3659668 C108.14662956 85.31843935 113.03273007 89.20555769 118 93 C121.86227195 91.32197408 124.98673319 88.79655142 128.25 86.1875 C128.8577124 85.70611572 129.4654248 85.22473145 130.09155273 84.72875977 C135.46707364 80.45773241 140.7833677 76.11411038 146.10205078 71.77270508 C151.26504231 67.56926832 156.51026295 63.49031575 161.80078125 59.44921875 C171.04040094 52.39097868 180.10392707 45.12076354 189.10864258 37.76635742 C194.21580475 33.6071833 199.41355278 29.59004342 204.65234375 25.59765625 C208.51980956 22.62295081 212.2878335 19.52849876 216.0625 16.4375 C222.57750199 11.10412518 229.20899666 5.97749677 236 1 C236.99 1.495 236.99 1.495 238 2 C237.33170166 3.56355225 237.33170166 3.56355225 236.64990234 5.15869141 C230.68165915 19.19256908 225.014611 33.34298242 219.36889648 47.50909424 C218.11572184 50.65241571 216.86050224 53.79492036 215.60546875 56.9375 C213.40945119 62.43726322 211.21495261 67.9376295 209.0218811 73.43856812 C208.34017979 75.14731042 207.61610069 76.8397415 206.85119629 78.51289368 C205.88435684 81.33789718 205.91981465 83.15589114 206.26123047 86.10864258 C206.37142517 87.07307281 206.48161987 88.03750305 206.59515381 89.03115845 C207.24443581 93.79251088 207.99783395 98.52735426 208.8203125 103.26171875 C208.99983963 104.31512451 209.17936676 105.36853027 209.36433411 106.45385742 C209.946998 109.86581067 210.53582573 113.27666548 211.125 116.6875 C211.53096145 119.05504622 211.93663908 121.42264112 212.34204102 123.7902832 C213.55459995 130.86136219 214.7762288 137.93085407 216 145 C216.18145569 146.04945801 216.36291138 147.09891602 216.54986572 148.18017578 C217.67443654 154.68342901 218.80349825 161.18588476 219.9375 167.6875 C220.15203827 168.91912369 220.15203827 168.91912369 220.37091064 170.17562866 C220.77573171 172.49625619 221.18228596 174.81657042 221.58984375 177.13671875 C221.77525726 178.19622993 221.77525726 178.19622993 221.9644165 179.27714539 C222.75635927 183.75776974 223.63911621 188.20811348 224.67016602 192.63989258 C225.68091962 199.87227979 224.54941221 206.52030438 223.171875 213.61328125 C222.98159729 214.62231003 222.79131958 215.63133881 222.59527588 216.67094421 C221.98696743 219.88612732 221.36842562 223.09924943 220.75 226.3125 C220.34963693 228.42761645 219.94989214 230.54285004 219.55078125 232.65820312 C218.39171291 238.77701819 217.20097644 244.88929092 216 251 C215.81300537 251.96210388 215.62601074 252.92420776 215.43334961 253.91546631 C214.90778829 256.60580379 214.37019085 259.29341457 213.828125 261.98046875 C213.67245056 262.78317703 213.51677612 263.58588531 213.35638428 264.41291809 C212.97000923 266.29002258 212.49399879 268.1483056 212 270 C211.34 270.33 210.68 270.66 210 271 C202.46632152 254.78831281 195.06782022 238.52269441 187.77456665 222.2013855 C184.19383626 214.19128084 180.59417983 206.18968537 176.99389648 198.18835449 C175.82295301 195.5857336 174.65267481 192.98281426 173.48242188 190.37988281 C170.21719549 183.12063703 166.94641679 175.8644323 163.62890625 168.62890625 C162.91480591 167.07030884 162.91480591 167.07030884 162.1862793 165.48022461 C161.34095881 163.63959473 160.49240559 161.80044439 159.63989258 159.96313477 C157 154.21832466 157 154.21832466 157 152 C156.34 152 155.68 152 155 152 C154.72470459 152.57709717 154.44940918 153.15419434 154.16577148 153.7487793 C153.01952657 155.96229224 151.75286361 157.96208912 150.34765625 160.01953125 C149.82397461 160.78700684 149.30029297 161.55448242 148.76074219 162.34521484 C148.20032227 163.15941895 147.63990234 163.97362305 147.0625 164.8125 C146.48274414 165.6576416 145.90298828 166.5027832 145.30566406 167.37353516 C141.27477499 173.22151994 137.14423 178.98486073 132.90478516 184.68310547 C130.67240491 187.69010271 128.48959076 190.71706237 126.38671875 193.81640625 C125.97325195 194.42564941 125.55978516 195.03489258 125.13378906 195.66259766 C124.00861218 197.33199275 122.8926597 199.00759455 121.77734375 200.68359375 C121.19082031 201.44800781 120.60429687 202.21242188 120 203 C119.34 203 118.68 203 118 203 C116.12243224 200.55671557 114.36175489 198.10373052 112.625 195.5625 C111.53528373 193.99340104 110.44543636 192.42439313 109.35546875 190.85546875 C108.79778809 190.04770996 108.24010742 189.23995117 107.66552734 188.40771484 C105.11105387 184.71492425 102.52601405 181.04397426 99.9375 177.375 C99.20539307 176.33375977 99.20539307 176.33375977 98.45849609 175.27148438 C95.94471789 171.70718439 93.39988595 168.17062827 90.80078125 164.66796875 C90.28845947 163.97719238 89.7761377 163.28641602 89.24829102 162.57470703 C88.27019923 161.26112833 87.28779719 159.95074496 86.30053711 158.64404297 C83 154.21761312 83 154.21761312 83 152 C80.27915531 153.36042235 80.04994508 154.74739319 78.84765625 157.52734375 C78.41098633 158.52499756 77.97431641 159.52265137 77.52441406 160.55053711 C77.04198242 161.66823486 76.55955078 162.78593262 76.0625 163.9375 C74.97686294 166.4173859 73.88975545 168.89658188 72.80078125 171.375 C72.50533417 172.04889267 72.20988708 172.72278534 71.90548706 173.417099 C68.3280803 181.5611646 64.64416149 189.6568656 60.96710205 197.75628662 C53.65329264 213.86823354 46.40667954 230.00835977 39.25097656 246.19116211 C35.5757563 254.49687995 31.83599558 262.76688072 28 271 C27.34 270.67 26.68 270.34 26 270 C25.17870798 266.87399704 24.49762383 263.7931883 23.875 260.625 C23.66979736 259.60728516 23.46459473 258.58957031 23.25317383 257.54101562 C22.63724998 254.4492152 22.03311615 251.35536591 21.43597412 248.2598877 C21.12795997 246.66328514 20.81898905 245.06686702 20.50933838 243.47058105 C19.40676547 237.78552401 18.31652799 232.09825857 17.23907471 226.40838623 C16.87279541 224.47704014 16.50444391 222.54608583 16.13397217 220.61553955 C15.60658719 217.85962534 15.08914495 215.10201585 14.57421875 212.34375 C14.41508499 211.52051239 14.25595123 210.69727478 14.09199524 209.84909058 C12.63565647 201.93531814 12.81301054 194.82281978 14.28515625 186.875 C14.42147964 186.10734818 14.55780304 185.33969635 14.69825745 184.54878235 C15.14672177 182.03135146 15.60466113 179.51574124 16.0625 177 C16.3807751 175.22172872 16.69830761 173.4433244 17.01513672 171.66479492 C17.67500844 167.9639937 18.33807889 164.26378689 19.00341797 160.56396484 C19.96495336 155.20773983 20.90985144 149.84870736 21.84765625 144.48828125 C21.99612503 143.63966019 22.14459381 142.79103912 22.29756165 141.91670227 C23.03216721 137.71372173 23.76474546 133.51039073 24.49633789 129.30688477 C24.78133423 127.670722 25.06640817 126.03457274 25.3515625 124.3984375 C25.48982956 123.60479294 25.62809662 122.81114838 25.77055359 121.99345398 C26.56328431 117.45663148 27.37313091 112.92336284 28.20175171 108.39295959 C28.57587047 106.34419204 28.94566809 104.29469439 29.31396484 102.24487305 C29.75600832 99.79161042 30.20622947 97.33980021 30.66650391 94.88989258 C30.85905762 93.81118896 31.05161133 92.73248535 31.25 91.62109375 C31.42015625 90.6973999 31.5903125 89.77370605 31.765625 88.82202148 C32.24637523 83.03348829 30.81622183 77.97749914 28.68676758 72.64428711 C28.20569046 71.42869614 27.72461334 70.21310516 27.22895813 68.9606781 C26.70102777 67.6494813 26.17287981 66.33837209 25.64453125 65.02734375 C25.09920861 63.65865831 24.55451683 62.28972138 24.01042175 60.92054749 C22.86924196 58.05331182 21.72315083 55.18811076 20.57299805 52.32446289 C19.11544852 48.69543318 17.66597918 45.06325286 16.21976185 41.42969418 C14.82234414 37.91951494 13.4212197 34.41081936 12.01953125 30.90234375 C11.76021128 30.25266066 11.5008913 29.60297756 11.23371315 28.9336071 C7.98630348 20.80741651 4.62638952 12.7430933 1.10087585 4.73390198 C0 2 0 2 0 0 Z " fill="#893C69" transform="translate(128,111)"/>
<path d="M0 0 C3.42098999 4.31502841 5.48981415 9.00905334 7.75 14 C8.38615234 15.35351562 8.38615234 15.35351562 9.03515625 16.734375 C9.43089844 17.60578125 9.82664062 18.4771875 10.234375 19.375 C10.59756836 20.16648437 10.96076172 20.95796875 11.33496094 21.7734375 C12.09755996 24.32663247 11.96732003 25.54182238 11 28 C5.89962121 33.06420589 -0.97619719 36.15190793 -7.4375 39.125 C-8.0967749 39.43727539 -8.7560498 39.74955078 -9.43530273 40.07128906 C-13.47809831 41.85445151 -17.18174788 43.07351944 -21.56225586 43.67553711 C-30.43903882 44.86825673 -30.43903882 44.86825673 -37.52676392 49.81408691 C-40.635401 55.27071152 -42.12225938 61.27483135 -43.6875 67.3125 C-44.21988643 69.12261387 -44.759546 70.93060528 -45.30664062 72.73632812 C-46.62302182 77.13751487 -47.83732221 81.55585275 -49 86 C-49.33 86 -49.66 86 -50 86 C-50.21948758 76.14002411 -49.53981913 66.48220814 -48.5625 56.6875 C-48.28937619 53.90007825 -48.02030131 51.11229129 -47.75390625 48.32421875 C-47.68805328 47.64140839 -47.62220032 46.95859802 -47.55435181 46.25509644 C-46.96463939 39.97849465 -46.59245772 33.69664786 -46.26147461 27.40161133 C-46.0391838 24.50975529 -45.64952402 21.82133841 -45 19 C-44.06800781 18.84144531 -43.13601563 18.68289063 -42.17578125 18.51953125 C-26.50619602 15.65179118 -12.41738371 10.28033398 0 0 Z " fill="#C336D6" transform="translate(300,314)"/>
<path d="M0 0 C3.40943819 1.26585095 6.28397829 2.74891638 9.3125 4.75 C19.60212633 11.00658352 31.05163749 14.68749048 43 16 C44.1291607 21.84163348 44.52035579 27.7212513 44.97265625 33.64453125 C45.06002548 34.76889084 45.14739471 35.89325043 45.2374115 37.05168152 C45.42109256 39.42603373 45.60339952 41.80049259 45.78442383 44.17504883 C46.06074861 47.78959051 46.34357497 51.40358341 46.62695312 55.01757812 C46.80508274 57.33069876 46.9828296 59.64384892 47.16015625 61.95703125 C47.24451431 63.02919388 47.32887238 64.10135651 47.41578674 65.20600891 C47.86382638 71.15827553 48.08361166 77.03090492 48 83 C46.08530911 80.12796366 45.26852339 77.72522005 44.37986755 74.42640686 C43.53152556 71.27956873 42.5895925 68.16222383 41.65600586 65.03979492 C41.17951266 63.39692148 40.72701136 61.74688674 40.29956055 60.09057617 C38.18147523 50.76484486 38.18147523 50.76484486 32.15914917 43.90560913 C27.86128715 42.30817535 23.45610247 41.73345359 18.91659546 41.25027466 C15.18199453 40.76259951 12.08905052 39.24514991 8.6875 37.6875 C8.04361328 37.39480225 7.39972656 37.10210449 6.73632812 36.80053711 C0.58817015 33.94310316 -5.24689442 30.58479496 -11 27 C-10.44440458 21.01742794 -7.99130941 16.06733997 -5.5 10.6875 C-5.08363281 9.76904297 -4.66726562 8.85058594 -4.23828125 7.90429688 C-1.15583546 1.15583546 -1.15583546 1.15583546 0 0 Z " fill="#C435D7" transform="translate(192,317)"/>
<path d="M0 0 C2.25931094 2.25931094 2.5582542 3.4636274 3.375 6.5 C4.37148619 9.99268409 5.48177463 13.33364698 6.875 16.6875 C8.67864189 21.07076923 10.24553285 25.50744937 11.75 30 C11.97284668 30.65959717 12.19569336 31.31919434 12.42529297 31.9987793 C14 36.75197 14 36.75197 14 39 C15.299375 39.04125 16.59875 39.0825 17.9375 39.125 C31.06018038 40.46139744 43.52828986 46.85509029 55 53 C55 53.99 55 54.98 55 56 C53.22733917 57.71567174 51.49071941 59.22819347 49.5625 60.75 C49.01770996 61.18739502 48.47291992 61.62479004 47.91162109 62.07543945 C46.80293357 62.96391713 45.69160346 63.84910744 44.57763672 64.73095703 C43.16158406 65.8700226 41.78307999 67.0553982 40.41015625 68.24609375 C39.65605469 68.88675781 38.90195312 69.52742188 38.125 70.1875 C37.46757812 70.75855469 36.81015625 71.32960938 36.1328125 71.91796875 C31.57860188 74.22843824 26.31917932 71.55367305 21.75 70.0625 C16.21181178 68.31393311 10.72111259 66.98150013 5 66 C4.25006632 63.26168583 3.81935342 60.67992934 3.62695312 57.84912109 C3.57019409 57.04082855 3.51343506 56.23253601 3.45495605 55.39974976 C3.39763306 54.53306671 3.34031006 53.66638367 3.28125 52.7734375 C3.21844849 51.87058014 3.15564697 50.96772278 3.09094238 50.0375061 C2.89058936 47.15022482 2.69501364 44.26264643 2.5 41.375 C2.30428291 38.50883195 2.10750886 35.64274398 1.90905762 32.77676392 C1.78596851 30.99593927 1.66451945 29.21500018 1.54504395 27.43392944 C1.1944975 22.3250695 0.74464889 17.2363738 0.20301819 12.144104 C-0.04290434 9.54688112 -0.09975505 6.98285369 -0.0625 4.375 C-0.05347656 3.53710938 -0.04445312 2.69921875 -0.03515625 1.8359375 C-0.02355469 1.23007813 -0.01195312 0.62421875 0 0 Z " fill="#3C3EA0" transform="translate(250,95)"/>
<path d="M0 0 C0.33 0 0.66 0 1 0 C1.19485607 8.65042863 0.60875312 17.03519863 -0.375 25.625 C-1.8817133 39.3982374 -3.0244837 53.17989391 -4 67 C-5.24136719 67.26554687 -6.48273438 67.53109375 -7.76171875 67.8046875 C-9.40369522 68.16123096 -11.04561959 68.51801444 -12.6875 68.875 C-13.91243164 69.13603516 -13.91243164 69.13603516 -15.16210938 69.40234375 C-18.51965512 70.13638209 -21.60541351 70.82969892 -24.76953125 72.1953125 C-27.72967384 73.26324485 -29.04163345 73.08756894 -32 72 C-34.22508986 70.32762132 -36.25435443 68.6672295 -38.3125 66.8125 C-39.45685246 65.8108057 -40.60268322 64.81079766 -41.75 63.8125 C-42.30300781 63.32910156 -42.85601562 62.84570312 -43.42578125 62.34765625 C-46.49085278 59.72371164 -49.73600631 57.36799542 -53 55 C-46.39392371 47.70350243 -36.2634609 44.88578859 -27.0625 42.125 C-26.35327393 41.90980713 -25.64404785 41.69461426 -24.91333008 41.47290039 C-20.84106675 40.30960285 -17.23030749 39.77491322 -13 40 C-12.89115479 39.1754834 -12.78230957 38.3509668 -12.67016602 37.50146484 C-11.90556995 33.50662447 -10.65424327 29.79032333 -9.27734375 25.9765625 C-9.01240616 25.23038666 -8.74746857 24.48421082 -8.47450256 23.71542358 C-7.63351712 21.35024984 -6.7856266 18.98762118 -5.9375 16.625 C-5.36347321 15.01448647 -4.7899007 13.40381095 -4.21679688 11.79296875 C-2.81644766 7.86008518 -1.40990353 3.92946802 0 0 Z " fill="#3B3EA0" transform="translate(239,94)"/>
<path d="M0 0 C2.83536313 1.41768156 3.24902647 3.59170751 4.4140625 6.40625 C5.9122155 13.03807394 4.91044117 19.85529527 3.72265625 26.46484375 C3.59185165 27.22422745 3.46104706 27.98361115 3.32627869 28.76600647 C3.05155541 30.35219184 2.77324822 31.93776043 2.49145508 33.52270508 C2.05947943 35.95450426 1.63922117 38.38811778 1.22070312 40.82226562 C0.95119513 42.36990924 0.68103658 43.91743974 0.41015625 45.46484375 C0.22103416 46.55538307 0.22103416 46.55538307 0.02809143 47.66795349 C-0.88344891 52.76689783 -0.88344891 52.76689783 -2 55 C-4.97171647 55.46734883 -7.8713959 55.80670557 -10.86328125 56.0703125 C-11.76564011 56.15626678 -12.66799896 56.24222107 -13.59770203 56.33078003 C-15.51824817 56.51164072 -17.43923617 56.6878586 -19.3605957 56.85986328 C-22.26305742 57.12055912 -25.16369116 57.39687612 -28.06445312 57.67578125 C-37.39565417 58.55157296 -46.61948308 59.33198841 -56 59 C-53.20362081 56.20362081 -49.85921925 55.43183317 -46.18359375 54.21484375 C-45.41193375 53.95369278 -44.64027374 53.69254181 -43.8452301 53.42347717 C-41.37782968 52.58922793 -38.90788006 51.76288007 -36.4375 50.9375 C-33.96391272 50.10753533 -31.49092466 49.27588744 -29.01905823 48.44081116 C-27.47989036 47.92117846 -25.93965608 47.40469236 -24.39830017 46.8915863 C-20.92803519 45.93028195 -20.92803519 45.93028195 -18 44 C-17.57994347 41.96317912 -17.18995934 39.92014333 -16.8125 37.875 C-14.23040934 25.58824011 -9.05774656 9.05774656 0 0 Z " fill="#6D3AB3" transform="translate(149,183)"/>
<path d="M0 0 C0.66 0 1.32 0 2 0 C17 29.01699029 17 29.01699029 17 42 C18.17433594 42.22429687 19.34867187 42.44859375 20.55859375 42.6796875 C27.57375509 44.23861224 34.2951067 46.74294387 41.0625 49.125 C42.4184587 49.5981182 43.77457741 50.07077806 45.13085938 50.54296875 C48.42243361 51.69003678 51.71180215 52.84328344 55 54 C55 54.33 55 54.66 55 55 C44.56059525 55.32449438 34.20611778 54.34173334 23.8125 53.5 C21.98375511 53.35507509 20.15497924 53.21054065 18.32617188 53.06640625 C13.88374448 52.71543873 9.44176996 52.35918822 5 52 C4.80881592 50.97769287 4.61763184 49.95538574 4.4206543 48.90209961 C4.15938696 47.50633932 3.89807169 46.11058801 3.63671875 44.71484375 C3.4318409 43.62030128 3.4318409 43.62030128 3.2228241 42.50364685 C2.43747703 38.31393083 1.64124916 34.12659142 0.83203125 29.94140625 C0.49192839 28.14848663 0.15207698 26.35551929 -0.1875 24.5625 C-0.36474609 23.66080078 -0.54199219 22.75910156 -0.72460938 21.83007812 C-3.53145207 6.84218838 -3.53145207 6.84218838 0 0 Z " fill="#6E3AB3" transform="translate(342,187)"/>
<path d="M0 0 C5.06373938 6.44475921 5.06373938 6.44475921 4.90234375 10.3828125 C2.76709997 16.57594381 -6.81726031 19.93065331 -12.484375 22.70703125 C-23.21666431 27.50256776 -34.22600595 31.18800041 -46 32 C-46.0772418 27.44273372 -45.99296412 23.46442924 -45 19 C-44.06800781 18.84144531 -43.13601563 18.68289063 -42.17578125 18.51953125 C-26.50619602 15.65179118 -12.41738371 10.28033398 0 0 Z " fill="#2C3F9A" transform="translate(300,314)"/>
<path d="M0 0 C3.40943819 1.26585095 6.28397829 2.74891638 9.3125 4.75 C19.60212633 11.00658352 31.05163749 14.68749048 43 16 C43.67629966 19.67438398 44.11910296 23.1392047 44.0625 26.875 C44.05347656 27.65617187 44.04445312 28.43734375 44.03515625 29.2421875 C44.02355469 29.82226562 44.01195312 30.40234375 44 31 C43.505 29.515 43.505 29.515 43 28 C42.02933594 28.04125 41.05867188 28.0825 40.05859375 28.125 C35.54036905 28.11592954 31.41360419 27.1504357 27.0625 26 C26.23854736 25.78287354 25.41459473 25.56574707 24.56567383 25.34204102 C13.83355457 22.33152336 4.1644627 17.30144526 -5 11 C-4.35731563 9.35293447 -3.71076198 7.70737825 -3.0625 6.0625 C-2.70285156 5.14597656 -2.34320313 4.22945313 -1.97265625 3.28515625 C-1 1 -1 1 0 0 Z " fill="#2C3E99" transform="translate(192,317)"/>
<path d="M0 0 C8.68630742 -0.1801308 17.81058516 -0.28564279 26.34130859 1.48632812 C29.147504 2.02849848 31.88976736 2.30666583 34.73828125 2.53515625 C35.80498047 2.62216797 36.87167969 2.70917969 37.97070312 2.79882812 C39.07349609 2.88583984 40.17628906 2.97285156 41.3125 3.0625 C42.43462891 3.15337891 43.55675781 3.24425781 44.71289062 3.33789062 C47.47506047 3.561215 50.23741934 3.78182631 53 4 C51.99172216 11.59173905 50.86071482 19.15123332 49.5 26.6875 C49.38164795 27.37005859 49.2632959 28.05261719 49.14135742 28.75585938 C48.52144726 32.10127288 47.91853156 34.12220265 46 37 C40.44419134 21.25512528 40.44419134 21.25512528 40 14 C39.01447144 13.83673218 39.01447144 13.83673218 38.0090332 13.67016602 C34.18981749 12.81955773 30.54527324 11.56080751 26.85546875 10.27734375 C26.08568192 10.01240616 25.31589508 9.74746857 24.52278137 9.47450256 C22.07663792 8.63184283 19.63206061 7.78473925 17.1875 6.9375 C15.5241901 6.36363785 13.8607797 5.7900669 12.19726562 5.21679688 C8.1303387 3.81456797 4.06481005 2.40835296 0 1 C0 0.67 0 0.34 0 0 Z " fill="#8637BA" transform="translate(91,252)"/>
<path d="M0 0 C3.80202353 3.48817725 6.58151455 7.47005205 9.5 11.6875 C10.56887954 13.21753935 11.63789382 14.74748459 12.70703125 16.27734375 C13.25182129 17.05964355 13.79661133 17.84194336 14.35791016 18.64794922 C16.45009426 21.64469345 18.56081265 24.6280716 20.67285156 27.61083984 C26.1677149 35.37131576 31.60659949 43.1686735 37 51 C42.5878377 44.42911678 47.58652653 37.84327009 52.17578125 30.53125 C53.92951745 28.0978002 55.50637186 26.62939057 58 25 C58.66 25.33 59.32 25.66 60 26 C49.74609375 40.6484375 49.74609375 40.6484375 47.88232422 43.29980469 C46.58877219 45.15540591 45.30989351 47.02129561 44.04345703 48.89550781 C43.42196777 49.80913086 42.80047852 50.72275391 42.16015625 51.6640625 C41.32109741 52.91243896 41.32109741 52.91243896 40.46508789 54.18603516 C39.98160889 54.78464355 39.49812988 55.38325195 39 56 C38.34 56 37.68 56 37 56 C35.12243224 53.55671557 33.36175489 51.10373052 31.625 48.5625 C30.53528373 46.99340104 29.44543636 45.42439313 28.35546875 43.85546875 C27.79778809 43.04770996 27.24010742 42.23995117 26.66552734 41.40771484 C24.11105387 37.71492425 21.52601405 34.04397426 18.9375 30.375 C18.44942871 29.68083984 17.96135742 28.98667969 17.45849609 28.27148438 C14.94471789 24.70718439 12.39988595 21.17062827 9.80078125 17.66796875 C9.28845947 16.97719238 8.7761377 16.28641602 8.24829102 15.57470703 C7.27019923 14.26112833 6.28779719 12.95074496 5.30053711 11.64404297 C2 7.21761312 2 7.21761312 2 5 C-0.72084469 6.36042235 -0.95005492 7.74739319 -2.15234375 10.52734375 C-2.80843628 12.02624146 -2.80843628 12.02624146 -3.4777832 13.55541992 C-4.20034302 15.22954956 -4.20034302 15.22954956 -4.9375 16.9375 C-6.01137297 19.39136496 -7.08674227 21.84452593 -8.1640625 24.296875 C-8.60444603 25.30152046 -8.60444603 25.30152046 -9.0537262 26.32646179 C-13.61936377 36.71993326 -18.34141253 47.04379508 -23.03512573 57.37985229 C-28.10687054 68.55114576 -33.11832342 79.74422884 -38 91 C-38.99 91 -39.98 91 -41 91 C-38.33191621 82.00794662 -34.31109201 73.67591265 -30.375 65.1875 C-29.64366843 63.60124044 -28.91287761 62.01473148 -28.18261719 60.42797852 C-27.10054915 58.07680209 -26.01824395 55.72574106 -24.9342041 53.37547302 C-22.33773147 47.74498902 -19.77863833 42.09879318 -17.25 36.4375 C-13.71212837 28.54160592 -10.1151998 20.67327214 -6.5 12.8125 C-5.97051758 11.65741943 -5.44103516 10.50233887 -4.89550781 9.31225586 C-4.40405273 8.24628174 -3.91259766 7.18030762 -3.40625 6.08203125 C-2.96603516 5.12530518 -2.52582031 4.1685791 -2.07226562 3.18286133 C-1 1 -1 1 0 0 Z " fill="#BB3449" transform="translate(209,258)"/>
<path d="M0 0 C10.2572916 7.64268786 20.36659863 15.45654134 30.33984375 23.46508789 C34.56233182 26.85467501 38.80241834 30.22028697 43.0625 33.5625 C43.63750244 34.01375244 44.21250488 34.46500488 44.80493164 34.92993164 C47.6761367 37.18164366 50.55007211 39.42982535 53.42578125 41.67578125 C60.57181008 47.26440717 67.64839455 52.9306068 74.67138672 58.67333984 C77.73789683 61.17821239 80.80221556 63.6625332 84 66 C83.505 67.485 83.505 67.485 83 69 C82.57404541 68.64397705 82.14809082 68.2879541 81.70922852 67.92114258 C69.98651608 58.14361545 58.03868672 48.7228285 45.79296875 39.609375 C38.91309195 34.48860994 32.19635913 29.19608644 25.515625 23.8203125 C21.38268094 20.49656946 17.20289531 17.23474869 13 14 C12.01 14.495 12.01 14.495 11 15 C10.01 14.01 9.02 13.02 8 12 C9.74677113 16.54291548 11.49752214 21.08428392 13.25 25.625 C13.64717224 26.6549408 13.64717224 26.6549408 14.05236816 27.70568848 C17.13850931 35.7029284 20.25761334 43.68484305 23.46875 51.6328125 C23.74603943 52.32013458 24.02332886 53.00745667 24.309021 53.71560669 C25.64578664 57.02643323 26.98887281 60.33450464 28.34082031 63.63916016 C28.82131836 64.82558105 29.30181641 66.01200195 29.796875 67.234375 C30.22323242 68.27819336 30.64958984 69.32201172 31.08886719 70.39746094 C32 73 32 73 32 76 C31.34 76 30.68 76 30 76 C29.71264984 75.27940399 29.42529968 74.55880798 29.12924194 73.81637573 C26.39568962 66.96229957 23.66039701 60.10892156 20.92323875 53.25628471 C19.51674215 49.73486653 18.11087566 46.21319974 16.70654297 42.69091797 C15.34647054 39.27971971 13.98462064 35.86923571 12.62163162 32.45920181 C12.10682883 31.17037397 11.59262362 29.88130724 11.07908249 28.59197617 C7.88788305 20.58135323 4.58110575 12.63954426 1.10733032 4.74832153 C0 2 0 2 0 0 Z " fill="#3B4087" transform="translate(128,111)"/>
<path d="M0 0 C7.19985987 0.20571028 13.4017031 1.54310104 20.1875 3.8125 C20.93499512 4.06080566 21.68249023 4.30911133 22.45263672 4.56494141 C27.53535832 6.32490518 32.23237475 8.51090007 37 11 C32.24668435 17.28116711 32.24668435 17.28116711 29 19 C24.73192116 18.51968913 20.8231563 17.39179362 16.75 16.0625 C11.19535702 14.30873787 5.73087724 13.02642577 0 12 C0 8.04 0 4.08 0 0 Z " fill="#D335DE" transform="translate(255,149)"/>
<path d="M0 0 C-3.45282843 2.30188562 -6.980132 3.4798815 -10.87890625 4.78515625 C-11.64677963 5.04630722 -12.41465302 5.30745819 -13.20579529 5.57652283 C-15.65665417 6.4093069 -18.10945855 7.23616936 -20.5625 8.0625 C-23.01875394 8.89341534 -25.47458082 9.72556366 -27.92991638 10.55918884 C-29.45734955 11.07740593 -30.98537963 11.59386758 -32.51405334 12.1084137 C-36.32654495 13.38214659 -36.32654495 13.38214659 -40 15 C-40.57876361 17.31505445 -41.06480221 19.65371627 -41.5 22 C-41.93519779 24.34628373 -42.42123639 26.68494555 -43 29 C-43.66 29.33 -44.32 29.66 -45 30 C-46.32 21.42 -47.64 12.84 -49 4 C-40.40296562 2.67737933 -32.01687852 1.53229999 -23.375 0.875 C-21.81265625 0.74544922 -21.81265625 0.74544922 -20.21875 0.61328125 C-13.46509934 0.08275757 -6.77331877 -0.10570203 0 0 Z " fill="#8437B8" transform="translate(399,252)"/>
<path d="M0 0 C0 3.96 0 7.92 0 12 C-1.24136719 12.26554688 -2.48273438 12.53109375 -3.76171875 12.8046875 C-5.40369522 13.16123096 -7.04561959 13.51801444 -8.6875 13.875 C-9.50412109 14.04902344 -10.32074219 14.22304687 -11.16210938 14.40234375 C-15.29726263 15.30638535 -19.08560235 16.35728492 -23 18 C-28.24899262 18 -31.38861534 14.40323569 -35 11 C-28.08439546 2.76827695 -10.417563 -0.71028839 0 0 Z " fill="#D335DD" transform="translate(235,149)"/>
<path d="M0 0 C1.71067121 2.56600682 2.9701401 4.92984695 4.2578125 7.71484375 C4.70995117 8.69179199 5.16208984 9.66874023 5.62792969 10.67529297 C6.12196289 11.75182129 6.61599609 12.82834961 7.125 13.9375 C7.6499707 15.07848145 8.17494141 16.21946289 8.71582031 17.39501953 C15.59813032 32.39220146 22.25106845 47.49279664 28.92938232 62.58154297 C31.86734695 69.21821764 34.80901687 75.85324603 37.7532959 82.48712158 C38.79018936 84.82470272 39.82532721 87.16305564 40.86035156 89.50146484 C41.49666309 90.93590864 42.13305221 92.37031802 42.76953125 93.8046875 C43.19505028 94.76791931 43.19505028 94.76791931 43.62916565 95.75061035 C44.91171972 98.63660301 46.24062703 101.46123345 47.7019043 104.26220703 C49 107 49 107 49 110 C48.34 110 47.68 110 47 110 C39.27131477 93.55445045 31.73622081 77.03356171 24.40454102 60.40722656 C20.57857279 51.7418952 16.68659805 43.11098599 12.72265625 34.5078125 C11.8345966 32.57317195 10.9467372 30.63843946 10.05908203 28.70361328 C8.75610884 25.86359227 7.44943999 23.0256271 6.12982178 20.19329834 C4.90828454 17.57097306 3.70091842 14.94253611 2.49609375 12.3125 C2.12613785 11.52876007 1.75618195 10.74502014 1.37501526 9.93753052 C-0.34011874 6.15912374 -1.31748646 3.97094887 0 0 Z " fill="#E33036" transform="translate(287,263)"/>
<path d="M0 0 C0.66 0.33 1.32 0.66 2 1 C1.52691406 2.11632812 1.05382812 3.23265625 0.56640625 4.3828125 C-4.71943339 16.8826342 -9.88402685 29.42978246 -15 42 C-15.66 42 -16.32 42 -17 42 C-16.40145639 38.59660515 -15.54208867 35.5739823 -14.22265625 32.3828125 C-13.87396484 31.52816406 -13.52527344 30.67351562 -13.16601562 29.79296875 C-12.80185547 28.91253906 -12.43769531 28.03210938 -12.0625 27.125 C-9.72760716 21.46946349 -7.542214 15.92662345 -6 10 C-6.78375 10.825 -7.5675 11.65 -8.375 12.5 C-11 15 -11 15 -13 15 C-15.03307365 16.43423016 -16.98597811 17.89868666 -18.9375 19.4375 C-19.51363037 19.88617432 -20.08976074 20.33484863 -20.68334961 20.79711914 C-25.40251474 24.48832164 -30.04676226 28.2673173 -34.66015625 32.08984375 C-36.73604325 33.78451611 -38.84284557 35.41077999 -41 37 C-41.66 36.67 -42.32 36.34 -43 36 C-41.45690575 31.90057491 -38.84740354 30.11725843 -35.375 27.5625 C-34.19498142 26.68187167 -33.01667441 25.7989465 -31.83984375 24.9140625 C-31.21577637 24.44516602 -30.59170898 23.97626953 -29.94873047 23.49316406 C-26.54749786 20.88705799 -23.24802714 18.15723026 -19.9375 15.4375 C-13.42349025 10.10300754 -6.79091783 4.97743409 0 0 Z " fill="#3D4188" transform="translate(364,112)"/>
<path d="M0 0 C1.37366127 4.12098382 -0.27723461 6.41030003 -2.05859375 10.12109375 C-2.5622496 11.20147415 -2.5622496 11.20147415 -3.07608032 12.30368042 C-3.80597917 13.86706579 -4.54025559 15.42841308 -5.27835083 16.98794556 C-7.24398056 21.14178283 -9.17838187 25.31015604 -11.1171875 29.4765625 C-11.5183931 30.33641251 -11.91959869 31.19626251 -12.33296204 32.08216858 C-16.69136724 41.4411268 -20.88623221 50.87118555 -25.0625 60.3125 C-25.76552202 61.89966777 -26.46856508 63.48682622 -27.17163086 65.07397461 C-28.78357166 68.71488935 -30.39271895 72.35702598 -32 76 C-32.99 76 -33.98 76 -35 76 C-32.33196926 67.00812542 -28.31177217 58.67546227 -24.375 50.1875 C-23.28639891 47.82815584 -22.19928657 45.46812977 -21.11231995 43.10803223 C-20.39739504 41.55594447 -19.68193551 40.00410287 -18.96592712 38.45251465 C-15.85505457 31.70579982 -12.80755764 24.93138722 -9.82763672 18.12573242 C-7.02633371 11.81437181 -3.83271035 5.74906553 0 0 Z " fill="#B0344E" transform="translate(203,273)"/>
<path d="M0 0 C0.99 0.66 1.98 1.32 3 2 C1.33110199 3.93240822 0.19135345 4.93232622 -2.2421875 5.79296875 C-5.66675696 7.29182422 -8.17395256 9.48356161 -10.9375 11.9375 C-15.47482214 15.87222425 -20.06938643 19.69071977 -24.8125 23.375 C-30.08988586 27.48361394 -35.31180145 31.65423485 -40.5 35.875 C-41.48770386 36.6781665 -41.48770386 36.6781665 -42.49536133 37.49755859 C-46.3515879 40.6398881 -50.18435664 43.80852052 -54 47 C-54.66 46.67 -55.32 46.34 -56 46 C-51.88976874 40.77742892 -47.47508121 36.78897105 -42.125 32.875 C-40.6091128 31.74167264 -39.09482842 30.60619873 -37.58203125 29.46875 C-36.81842285 28.89511719 -36.05481445 28.32148438 -35.26806641 27.73046875 C-31.71920692 25.02279211 -28.26361648 22.20556739 -24.8125 19.375 C-19.6399545 15.14082249 -14.44276617 10.9437518 -9.1875 6.8125 C-8.31605347 6.12583252 -8.31605347 6.12583252 -7.42700195 5.42529297 C-4.99833596 3.52169491 -2.56929469 1.71286313 0 0 Z " fill="#5A3D78" transform="translate(320,147)"/>
<path d="M0 0 C0.33 0 0.66 0 1 0 C2.29113444 7.39992094 3.5717592 14.80160622 4.84521484 22.20458984 C5.2793389 24.72095548 5.71583608 27.23691294 6.15478516 29.75244141 C6.78657633 33.37557038 7.40972013 37.00009845 8.03125 40.625 C8.22811401 41.74302002 8.42497803 42.86104004 8.62780762 44.01293945 C9.60537059 49.76642097 10.22255588 55.16409014 10 61 C9.01 61 8.02 61 7 61 C6.96986816 60.29721924 6.93973633 59.59443848 6.90869141 58.87036133 C6.49850685 51.88677687 5.59350255 45.13744214 4.3359375 38.26171875 C4.17925598 37.40450226 4.02257446 36.54728577 3.86114502 35.66409302 C3.20365877 32.10066613 2.53683276 28.53911805 1.86035156 24.97924805 C1.36270029 22.34604238 0.87978914 19.71044542 0.3984375 17.07421875 C0.24329681 16.28133957 0.08815613 15.48846039 -0.07168579 14.67155457 C-1.0100372 9.47771776 -0.89116135 5.20807141 0 0 Z " fill="#A7324C" transform="translate(342,249)"/>
<path d="M0 0 C0.33 0 0.66 0 1 0 C0.14855625 10.55143578 -1.73790976 20.93356286 -3.49145508 31.36401367 C-3.90520092 33.8319755 -4.31411793 36.3007029 -4.72265625 38.76953125 C-4.85076187 39.52168411 -4.97886749 40.27383698 -5.1108551 41.04878235 C-5.71964245 44.73656774 -6.15036545 48.26017677 -6 52 C-7.98 52.495 -7.98 52.495 -10 53 C-9.43713106 44.22733646 -8.02245049 35.66747836 -6.47094727 27.02832031 C-6.06094016 24.74129923 -5.65988476 22.45283194 -5.25976562 20.1640625 C-4.9979238 18.68740628 -4.73557187 17.21084041 -4.47265625 15.734375 C-4.3548732 15.0613031 -4.23709015 14.3882312 -4.11573792 13.69476318 C-1.99743053 1.99743053 -1.99743053 1.99743053 0 0 Z " fill="#B0344C" transform="translate(151,258)"/>
<path d="M0 0 C1.82495508 2.73743261 3.15958528 5.33496465 4.5390625 8.3125 C5.03374023 9.38000488 5.52841797 10.44750977 6.03808594 11.54736328 C6.56176758 12.6867334 7.08544922 13.82610352 7.625 15 C8.42599121 16.73805908 8.42599121 16.73805908 9.24316406 18.51123047 C13.70876772 28.25473189 17.93741865 38.08252199 22 48 C21.01 48 20.02 48 19 48 C16.79397236 43.18054246 14.58859373 38.36078864 12.38378906 33.54077148 C11.63526499 31.90462423 10.88657051 30.26855493 10.13769531 28.63256836 C9.05487848 26.26697452 7.97269601 23.90109132 6.890625 21.53515625 C6.56128967 20.81602554 6.23195435 20.09689484 5.89263916 19.35597229 C5.25212428 17.95488379 4.61534875 16.55207907 3.98254395 15.14749146 C3.28586257 13.62479386 2.56696252 12.11217353 1.83288574 10.60714722 C1.45716431 9.81825104 1.08144287 9.02935486 0.69433594 8.21655273 C0.17271881 7.14871803 0.17271881 7.14871803 -0.35943604 6.05931091 C-1.11259901 3.63801216 -0.82431756 2.36244994 0 0 Z " fill="#BA344A" transform="translate(287,263)"/>
<path d="M0 0 C4.04754766 2.29786565 7.68023542 4.98165963 11.3125 7.875 C12.20751221 8.58269531 12.20751221 8.58269531 13.12060547 9.3046875 C18.67623999 13.71132557 24.17955868 18.1829104 29.66918945 22.67138672 C32.73633895 25.17703279 35.80142175 27.66195295 39 30 C38.505 31.485 38.505 31.485 38 33 C37.57404541 32.64397705 37.14809082 32.2879541 36.70922852 31.92114258 C27.8350032 24.51944444 18.89106406 17.25866253 9.62329102 10.3527832 C5.77345212 7.46062032 2.3121319 4.49827885 -1 1 C-0.67 0.67 -0.34 0.34 0 0 Z " fill="#563D79" transform="translate(173,147)"/>
<path d="M0 0 C4.03483328 3.66537866 6.96698829 7.98983839 10.0625 12.4375 C10.59166016 13.18837891 11.12082031 13.93925781 11.66601562 14.71289062 C14.25158605 18.40146474 16.75390785 22.09071159 19 26 C16.45504771 25.62385818 15.25386175 25.26815078 13.46020508 23.37353516 C12.98478271 22.68565918 12.50936035 21.9977832 12.01953125 21.2890625 C11.49552734 20.53882813 10.97152344 19.78859375 10.43164062 19.015625 C9.63016602 17.83226562 9.63016602 17.83226562 8.8125 16.625 C8.26658203 15.84382813 7.72066406 15.06265625 7.15820312 14.2578125 C3.15424855 8.46274566 3.15424855 8.46274566 2 5 C-0.70608417 6.35304209 -0.96183047 7.80966544 -2.125 10.5625 C-2.47820312 11.38878906 -2.83140625 12.21507812 -3.1953125 13.06640625 C-3.59363281 14.02353516 -3.59363281 14.02353516 -4 15 C-4.66 15 -5.32 15 -6 15 C-6.33 15.99 -6.66 16.98 -7 18 C-7.33 17.34 -7.66 16.68 -8 16 C-7.37915039 14.30419922 -7.37915039 14.30419922 -6.34765625 12.3046875 C-5.98349609 11.58925781 -5.61933594 10.87382812 -5.24414062 10.13671875 C-4.85419922 9.39035156 -4.46425781 8.64398438 -4.0625 7.875 C-3.67642578 7.12089844 -3.29035156 6.36679687 -2.89257812 5.58984375 C-1.93547868 3.72290903 -0.96863894 1.86097372 0 0 Z " fill="#A73654" transform="translate(209,258)"/>
<path d="M0 0 C1.40122343 4.20367029 -0.29985633 6.90898479 -1.9296875 10.80859375 C-2.2394754 11.57172379 -2.54926331 12.33485382 -2.86843872 13.12110901 C-3.86175276 15.56363924 -4.86779834 18.00066757 -5.875 20.4375 C-6.87270241 22.87165347 -7.867717 25.30686791 -8.86013794 27.74317932 C-9.4786699 29.25941298 -10.10067261 30.7742365 -10.72653198 32.28746033 C-12.04490052 35.50028395 -13.21533936 38.61843088 -14 42 C-14.66 42 -15.32 42 -16 42 C-15.43026718 36.64937136 -14.1294415 32.14821306 -12.12890625 27.16796875 C-11.84651596 26.45014725 -11.56412567 25.73232574 -11.2731781 24.99275208 C-10.67918667 23.48794031 -10.08147917 21.98459053 -9.48022461 20.48266602 C-8.55964785 18.18036697 -7.65305937 15.87290853 -6.74804688 13.56445312 C-6.16748372 12.09863446 -5.58613132 10.63312809 -5.00390625 9.16796875 C-4.59755699 8.1336396 -4.59755699 8.1336396 -4.18299866 7.07841492 C-3.04332142 4.24824361 -2.18076399 2.18076399 0 0 Z " fill="#5D3C76" transform="translate(347,154)"/>
<path d="M0 0 C1.38237177 4.14711531 0.05819783 5.70164474 -1.74609375 9.63671875 C-2.03605728 10.27615921 -2.32602081 10.91559967 -2.62477112 11.57441711 C-3.55327021 13.6163977 -4.49515725 15.65187649 -5.4375 17.6875 C-6.06925069 19.07055676 -6.7001212 20.45401592 -7.33007812 21.83789062 C-8.87653158 25.22998975 -10.43505135 28.61638701 -12 32 C-12.99 32 -13.98 32 -15 32 C-12.7840076 24.92052594 -10.0181821 18.24431715 -6.9375 11.5 C-6.49083984 10.4996875 -6.04417969 9.499375 -5.58398438 8.46875 C-4.93719727 7.045625 -4.93719727 7.045625 -4.27734375 5.59375 C-3.88796631 4.73458984 -3.49858887 3.87542969 -3.09741211 2.99023438 C-2 1 -2 1 0 0 Z " fill="#DA313A" transform="translate(183,317)"/>
<path d="M0 0 C3.25475611 4.88213416 5.11162169 10.44630868 7.27783203 15.87890625 C8.12291719 17.99478518 8.97713234 20.10682031 9.83203125 22.21875 C10.37035069 23.56227615 10.90812956 24.90601904 11.4453125 26.25 C11.93531738 27.47203125 12.42532227 28.6940625 12.93017578 29.953125 C14 33 14 33 14 36 C13.34 36 12.68 36 12 36 C10.1158421 31.52184396 8.24659347 27.03786511 6.39086914 22.54785156 C5.75755945 21.02142113 5.12021427 19.49665848 4.47875977 17.97363281 C3.55718952 15.78356502 2.65031956 13.58790078 1.74609375 11.390625 C1.45657333 10.7113092 1.16705292 10.03199341 0.86875916 9.33209229 C-0.25673103 6.56376476 -1.07217846 4.54115062 -0.67163086 1.53808594 C-0.44999268 1.03051758 -0.22835449 0.52294922 0 0 Z " fill="#643C73" transform="translate(146,151)"/>
<path d="M0 0 C0.66 0.66 1.32 1.32 2 2 C0.89108574 9.67649798 -2.07478286 16.47523076 -5.125 23.5625 C-5.59292969 24.66658203 -6.06085938 25.77066406 -6.54296875 26.90820312 C-7.68852662 29.60844668 -8.84097858 32.30551467 -10 35 C-10.66 35 -11.32 35 -12 35 C-11.40642815 31.63383256 -10.56843462 28.64253899 -9.2578125 25.48828125 C-8.91363281 24.64716797 -8.56945312 23.80605469 -8.21484375 22.93945312 C-7.49634152 21.20757948 -6.77759713 19.47580627 -6.05859375 17.74414062 C-3.67380715 11.9151548 -1.69889955 6.06460085 0 0 Z " fill="#4A3F80" transform="translate(359,119)"/>
<path d="M0 0 C0.66 0.66 1.32 1.32 2 2 C-1.92528979 5.19524148 -5.85289531 8.38755873 -9.78515625 11.57421875 C-12.26331937 13.58367496 -14.73240567 15.60227543 -17.18359375 17.64453125 C-18.05113281 18.35996094 -18.91867187 19.07539063 -19.8125 19.8125 C-20.56144531 20.43769531 -21.31039063 21.06289062 -22.08203125 21.70703125 C-24 23 -24 23 -27 23 C-22.62545984 17.52835295 -17.99935546 13.39991505 -12.375 9.25 C-11.62476563 8.68667969 -10.87453125 8.12335938 -10.1015625 7.54296875 C-8.07291341 6.02148193 -6.03712961 4.51009811 -4 3 C-2.66607469 2.00078979 -1.3325772 1.00100739 0 0 Z " fill="#683C71" transform="translate(291,170)"/>
<path d="M0 0 C3 1 3 1 4.53393555 3.77563477 C5.07912273 4.99272296 5.61265395 6.2150748 6.13671875 7.44140625 C6.42102249 8.08367661 6.70532623 8.72594696 6.99824524 9.38768005 C7.90472074 11.44170153 8.79620761 13.50185118 9.6875 15.5625 C10.29915473 16.95550685 10.91177324 18.34809095 11.52539062 19.74023438 C13.02814458 23.15532001 14.51752274 26.5760556 16 30 C15.01 30.33 14.02 30.66 13 31 C11.14384413 26.90871045 9.29256098 22.81526278 7.44580078 18.71972656 C6.8166096 17.3262159 6.1860809 15.93330836 5.55419922 14.54101562 C4.64720626 12.5419291 3.74501462 10.54073687 2.84375 8.5390625 C2.55939087 7.91504547 2.27503174 7.29102844 1.98205566 6.64810181 C0 2.22774341 0 2.22774341 0 0 Z " fill="#CA3242" transform="translate(307,311)"/>
<path d="M0 0 C0.99 0.33 1.98 0.66 3 1 C3.99 7.93 4.98 14.86 6 22 C5.01 22.66 4.02 23.32 3 24 C2.49357075 20.93852743 1.99600678 17.87567701 1.5 14.8125 C1.35691406 13.94818359 1.21382813 13.08386719 1.06640625 12.19335938 C0.40685738 8.09473423 -0.20709266 4.16773976 0 0 Z " fill="#763865" transform="translate(331,196)"/>
<path d="M0 0 C0.66 0 1.32 0 2 0 C3.50855339 3.6006459 5.00535824 7.20605959 6.5 10.8125 C6.92925781 11.83666016 7.35851562 12.86082031 7.80078125 13.91601562 C8.20683594 14.89892578 8.61289063 15.88183594 9.03125 16.89453125 C9.59682617 18.25348511 9.59682617 18.25348511 10.17382812 19.63989258 C11 22 11 22 11 25 C10.34 25 9.68 25 9 25 C7.49144661 21.3993541 5.99464176 17.79394041 4.5 14.1875 C4.07074219 13.16333984 3.64148438 12.13917969 3.19921875 11.08398438 C2.79316406 10.10107422 2.38710937 9.11816406 1.96875 8.10546875 C1.59169922 7.19949951 1.21464844 6.29353027 0.82617188 5.36010742 C0 3 0 3 0 0 Z " fill="#483E7F" transform="translate(135,127)"/>
<path d="M0 0 C1.17189558 3.51568674 0.83725505 3.9991852 -0.65234375 7.23046875 C-1.01650391 8.03291016 -1.38066406 8.83535156 -1.75585938 9.66210938 C-2.34077148 10.91217773 -2.34077148 10.91217773 -2.9375 12.1875 C-3.32357422 13.03248047 -3.70964844 13.87746094 -4.10742188 14.74804688 C-5.06300701 16.83617735 -6.02743783 18.91973604 -7 21 C-7.99 21 -8.98 21 -10 21 C-7.85827414 14.12393278 -5.43613652 7.35061535 -2 1 C-1.34 0.67 -0.68 0.34 0 0 Z " fill="#C23448" transform="translate(192,297)"/>
<path d="M0 0 C1.6268029 2.44020435 2.77669952 4.57281664 3.9453125 7.23046875 C4.29980469 8.03291016 4.65429688 8.83535156 5.01953125 9.66210938 C5.38433594 10.49548828 5.74914062 11.32886719 6.125 12.1875 C6.49753906 13.03248047 6.87007813 13.87746094 7.25390625 14.74804688 C8.17179054 16.83093816 9.08705314 18.91494102 10 21 C9.01 21.33 8.02 21.66 7 22 C5.62683502 19.09191094 4.27991866 16.17239387 2.9375 13.25 C2.54755859 12.425 2.15761719 11.6 1.75585938 10.75 C1.39169922 9.95078125 1.02753906 9.1515625 0.65234375 8.328125 C0.31195068 7.5949707 -0.02844238 6.86181641 -0.37915039 6.10644531 C-1.09847116 3.66590281 -0.82742385 2.37210464 0 0 Z " fill="#A93652" transform="translate(287,263)"/>
<path d="M0 0 C0.66 0.33 1.32 0.66 2 1 C0.6445512 5.0663464 -1.26489579 5.13244789 -5 7 C-6.85315257 9.04946399 -6.85315257 9.04946399 -8 11 C-11.36591866 9.55746343 -13.51047079 7.66735273 -16 5 C-12 5 -12 5 -8 7 C-4.04 3.535 -4.04 3.535 0 0 Z " fill="#743A6B" transform="translate(256,197)"/>
<path d="M0 0 C0.33 0 0.66 0 1 0 C1.53107314 2.74837849 2.05015881 5.49812375 2.5625 8.25 C2.71396484 9.02730469 2.86542969 9.80460937 3.02148438 10.60546875 C3.16005859 11.35957031 3.29863281 12.11367188 3.44140625 12.890625 C3.57232666 13.58188477 3.70324707 14.27314453 3.83813477 14.98535156 C4.01710362 17.21287942 3.65206197 18.87506962 3 21 C2.34 20.67 1.68 20.34 1 20 C-0.85345645 13.22567088 -1.32194029 6.87408948 0 0 Z " fill="#92324F" transform="translate(342,249)"/>
<path d="M0 0 C1.39211215 4.17633644 -0.0464421 5.78960515 -1.9375 9.6875 C-2.50339844 10.86699219 -3.06929687 12.04648437 -3.65234375 13.26171875 C-4.09707031 14.16535156 -4.54179687 15.06898438 -5 16 C-5.99 16 -6.98 16 -8 16 C-6.41977816 10.86427902 -4.55407862 5.73901307 -2 1 C-1.34 0.67 -0.68 0.34 0 0 Z " fill="#D13342" transform="translate(183,317)"/>
<path d="M0 0 C0.33 0.66 0.66 1.32 1 2 C0.05016642 3.50539661 -0.91011891 5.00420347 -1.875 6.5 C-2.40867188 7.3353125 -2.94234375 8.170625 -3.4921875 9.03125 C-3.98976562 9.6809375 -4.48734375 10.330625 -5 11 C-5.66 11 -6.32 11 -7 11 C-10 7.53846154 -10 7.53846154 -10 5 C-9.01 5.33 -8.02 5.66 -7 6 C-6.21625 5.195625 -5.4325 4.39125 -4.625 3.5625 C-2 1 -2 1 0 0 Z " fill="#C13243" transform="translate(253,303)"/>
<path d="M0 0 C0.33 0 0.66 0 1 0 C1.50423557 2.74928442 2.00353426 5.49931143 2.5 8.25 C2.64308594 9.02730469 2.78617187 9.80460938 2.93359375 10.60546875 C3.06894531 11.35957031 3.20429688 12.11367187 3.34375 12.890625 C3.53227539 13.92751465 3.53227539 13.92751465 3.72460938 14.98535156 C4 17 4 17 4 21 C3.34 21 2.68 21 2 21 C0.02427486 13.67753847 -1.61730978 7.49843627 0 0 Z " fill="#863458" transform="translate(338,226)"/>
<path d="M0 0 C3.71060708 2.11939179 6.99883918 4.4923892 10.3125 7.1875 C11.19550781 7.90292969 12.07851562 8.61835938 12.98828125 9.35546875 C13.65214844 9.89816406 14.31601563 10.44085938 15 11 C14.67 11.99 14.34 12.98 14 14 C9.05 10.04 4.1 6.08 -1 2 C-0.67 1.34 -0.34 0.68 0 0 Z " fill="#633C75" transform="translate(197,166)"/>
<path d="M0 0 C2 1 2 1 2.6328125 2.78515625 C3.75543789 7.9795261 4.19321526 12.68658027 4 18 C3.01 18 2.02 18 1 18 C0.67 12.06 0.34 6.12 0 0 Z " fill="#BD344A" transform="translate(348,292)"/>
<path d="M0 0 C2.77426597 4.16139895 4.18550101 7.33049088 3.625 12.375 C3.41875 13.24125 3.2125 14.1075 3 15 C2.01 15.33 1.02 15.66 0 16 C0.01740234 15.00419922 0.01740234 15.00419922 0.03515625 13.98828125 C0.08111547 9.49084312 -0.00505227 5.40619708 -1 1 C-0.67 0.67 -0.34 0.34 0 0 Z " fill="#6E396A" transform="translate(160,186)"/>
<path d="M0 0 C1.7866789 2.68001835 2.9322137 5.03128744 4.125 8 C4.47820312 8.86625 4.83140625 9.7325 5.1953125 10.625 C6 13 6 13 6 16 C5.34 16 4.68 16 4 16 C3.1319092 14.08959948 2.28098217 12.17139263 1.4375 10.25 C0.96183594 9.18265625 0.48617187 8.1153125 -0.00390625 7.015625 C-0.9946154 4.01630163 -1.16161779 2.86578759 0 0 Z " fill="#573D79" transform="translate(146,151)"/>
<path d="M0 0 C0.66 0.33 1.32 0.66 2 1 C0.35 5.62 -1.3 10.24 -3 15 C-3.66 15 -4.32 15 -5 15 C-4.5188509 9.22621075 -2.81532819 5.04140164 0 0 Z " fill="#6C3B6F" transform="translate(336,181)"/>
<path d="M0 0 C2.39073149 2.93189994 3.84107307 5.72143288 5.1875 9.25 C5.53167969 10.14203125 5.87585938 11.0340625 6.23046875 11.953125 C6.48441406 12.62859375 6.73835938 13.3040625 7 14 C6.01 14 5.02 14 4 14 C3.13395466 12.23494565 2.28251358 10.46271926 1.4375 8.6875 C0.72400391 7.20830078 0.72400391 7.20830078 -0.00390625 5.69921875 C-1 3 -1 3 0 0 Z " fill="#D7323E" transform="translate(316,328)"/>
<path d="M0 0 C0.66 0.33 1.32 0.66 2 1 C0.68 3.97 -0.64 6.94 -2 10 C-3.32 9.67 -4.64 9.34 -6 9 C-5.52797514 4.75177626 -3.03344482 2.80010291 0 0 Z " fill="#363E83" transform="translate(364,112)"/>
<path d="M0 0 C0.66 0.33 1.32 0.66 2 1 C1.91306859 2.79258558 1.80489496 4.58415144 1.6875 6.375 C1.62949219 7.37273437 1.57148438 8.37046875 1.51171875 9.3984375 C1.34285156 10.25695312 1.17398438 11.11546875 1 12 C0.01 12.66 -0.98 13.32 -2 14 C-1.85795259 12.41632253 -1.71119847 10.83306682 -1.5625 9.25 C-1.48128906 8.36828125 -1.40007812 7.4865625 -1.31640625 6.578125 C-1.03761535 4.30649548 -0.61209423 2.20148177 0 0 Z " fill="#7A345B" transform="translate(157,216)"/>
<path d="M0 0 C0.33 0 0.66 0 1 0 C0.9129995 1.62600941 0.8048219 3.25089678 0.6875 4.875 C0.62949219 5.77992188 0.57148438 6.68484375 0.51171875 7.6171875 C0 10 0 10 -3 12 C-2.88601335 10.37419034 -2.75844341 8.74932843 -2.625 7.125 C-2.55539063 6.22007812 -2.48578125 5.31515625 -2.4140625 4.3828125 C-2 2 -2 2 0 0 Z " fill="#95314E" transform="translate(151,258)"/>
<path d="M0 0 C0.66 0.33 1.32 0.66 2 1 C-0.625 7.75 -0.625 7.75 -4 10 C-4.41176754 6.39703406 -4.1535853 5.21597933 -2 2.1875 C-1.34 1.465625 -0.68 0.74375 0 0 Z " fill="#2C4393" transform="translate(357,117)"/>
<path d="M0 0 C0.33 0 0.66 0 1 0 C0.88648483 1.81325551 0.75887039 3.62563357 0.625 5.4375 C0.55539063 6.44683594 0.48578125 7.45617187 0.4140625 8.49609375 C0.27742187 9.32238281 0.14078125 10.14867187 0 11 C-0.99 11.495 -0.99 11.495 -2 12 C-2.28571429 3.42857143 -2.28571429 3.42857143 0 0 Z " fill="#B9344C" transform="translate(146,286)"/>
<path d="M0 0 C0.99 0.33 1.98 0.66 3 1 C2.67 3.64 2.34 6.28 2 9 C1.01 8.67 0.02 8.34 -1 8 C-0.67 5.36 -0.34 2.72 0 0 Z " fill="#9F3049" transform="translate(143,296)"/>
<path d="M0 0 C0.33 0 0.66 0 1 0 C1 3.96 1 7.92 1 12 C-2 8 -2 8 -1.75 4.875 C-1 2 -1 2 0 0 Z " fill="#1B2F70" transform="translate(239,94)"/>
<path d="M0 0 C0.33 0.99 0.66 1.98 1 3 C1.66 3 2.32 3 3 3 C1.125 7.75 1.125 7.75 0 10 C-0.66 9.67 -1.32 9.34 -2 9 C-1.34 6.03 -0.68 3.06 0 0 Z " fill="#B13856" transform="translate(262,261)"/>
<path d="M0 0 C0.99 1.32 1.98 2.64 3 4 C1.68 5.32 0.36 6.64 -1 8 C-1.625 5.6875 -1.625 5.6875 -2 3 C-1.34 2.01 -0.68 1.02 0 0 Z " fill="#6B3F78" transform="translate(281,190)"/>
<path d="M0 0 C0.66 0.66 1.32 1.32 2 2 C1.625 5.125 1.625 5.125 1 8 C0.01 8.33 -0.98 8.66 -2 9 C-1.34 6.03 -0.68 3.06 0 0 Z " fill="#4D4184" transform="translate(359,119)"/>
<path d="M0 0 C0.33 0.66 0.66 1.32 1 2 C-0.3125 3.5 -0.3125 3.5 -2 5 C-2.99 5 -3.98 5 -5 5 C-5.33 5.66 -5.66 6.32 -6 7 C-6 6.01 -6 5.02 -6 4 C-4.08512183 2.34043892 -2.26423282 1.13211641 0 0 Z " fill="#D53340" transform="translate(253,303)"/>
<path d="M0 0 C0.66 0.33 1.32 0.66 2 1 C2 2.98 2 4.96 2 7 C1.01 7.33 0.02 7.66 -1 8 C-0.67 5.36 -0.34 2.72 0 0 Z " fill="#9E3047" transform="translate(146,279)"/>
<path d="M0 0 C0.93065133 2.60582371 1.14917407 3.64198224 0.0625 6.25 C-0.4634375 7.11625 -0.4634375 7.11625 -1 8 C-1.33 7.34 -1.66 6.68 -2 6 C-2.99 6.495 -2.99 6.495 -4 7 C-2.79618552 4.50638429 -1.54571278 2.31856917 0 0 Z " fill="#C3364D" transform="translate(264,252)"/>
</svg>
